<svg xmlns="http://www.w3.org/2000/svg" xmlns:xlink="http://www.w3.org/1999/xlink" class="svg-inline" version="1.1" id="phoenixNAP-logo" x="0px" y="0px" enable-background="new -2.5 441.2 740 212.6" xml:space="preserve" viewBox="15.4 482.4 704.7 131.4"><g id="Layer_1" display="none"><g id="bg" display="inline"></g><g id="slogan_1_" display="inline"><g id="Layer_7"></g><g id="Layer_6"></g></g><g id="symbol" display="inline"></g><g display="inline"><path fill="#231F20" d="M202.7,583c-1.2-1.4-2.9-2.1-5.2-2.1c-0.7,0-1.4,0.1-2.1,0.2c-0.7,0.1-1.3,0.4-1.8,0.7    c-0.5,0.3-1,0.7-1.3,1.2s-0.5,1.1-0.5,1.8c0,1,0.3,1.7,1,2.3c0.7,0.5,1.5,1,2.5,1.3s2.1,0.7,3.3,0.9c1.2,0.3,2.3,0.6,3.3,1.1    s1.9,1.1,2.5,1.8c0.7,0.7,1,1.8,1,3.1c0,1-0.3,1.9-0.8,2.6c-0.5,0.8-1.2,1.4-2.1,2c-0.8,0.5-1.8,0.9-2.9,1.2    c-1.1,0.3-2.1,0.4-3.2,0.4c-1.6,0-3.2-0.2-4.7-0.7s-2.7-1.3-3.8-2.4l2.5-1.4c0.6,0.8,1.4,1.4,2.4,1.9s2.3,0.7,3.7,0.7    c0.7,0,1.4-0.1,2.1-0.3c0.7-0.2,1.3-0.4,1.8-0.8c0.5-0.3,1-0.7,1.4-1.2s0.5-1,0.5-1.7s-0.2-1.4-0.6-1.9c-0.4-0.5-0.9-0.9-1.6-1.2    c-0.6-0.3-1.4-0.6-2.2-0.8s-1.7-0.4-2.5-0.7c-0.9-0.2-1.7-0.5-2.5-0.8s-1.6-0.6-2.2-1.1c-0.6-0.4-1.2-1-1.6-1.6    c-0.4-0.7-0.6-1.5-0.6-2.5s0.2-1.9,0.7-2.7c0.5-0.8,1.2-1.4,2-1.9s1.8-0.9,2.8-1.1s2.1-0.4,3.2-0.4c1.5,0,2.9,0.2,4.1,0.6    c1.2,0.4,2.4,1.1,3.5,2L202.7,583z"></path><path fill="#231F20" d="M221.9,599h14.4v2h-17.2v-21.5h16.7v2h-14v7.3h13.1v2h-13.1v8.2H221.9z"></path><path fill="#231F20" d="M271.9,597.6c-0.5,0.5-1,1.1-1.7,1.6s-1.4,0.9-2.3,1.3c-0.9,0.4-1.8,0.6-2.8,0.8c-1,0.2-2.1,0.3-3.2,0.3    c-2,0-3.9-0.3-5.6-0.9c-1.7-0.6-3.2-1.4-4.5-2.4s-2.2-2.2-2.9-3.6c-0.7-1.4-1.1-2.9-1.1-4.5c0-1.6,0.4-3.2,1.1-4.5    s1.7-2.6,2.9-3.6c1.3-1,2.7-1.8,4.5-2.4c1.7-0.6,3.6-0.9,5.6-0.9c1.7,0,3.3,0.3,5,0.8s3.1,1.4,4.3,2.6l-2.4,1.4    c-0.3-0.3-0.7-0.7-1.1-1c-0.5-0.3-1-0.7-1.7-0.9c-0.6-0.3-1.3-0.5-2-0.6c-0.7-0.2-1.4-0.2-2.1-0.2c-1.7,0-3.3,0.3-4.6,0.8    c-1.4,0.5-2.5,1.2-3.5,2c-1,0.9-1.7,1.8-2.2,3c-0.5,1.1-0.8,2.3-0.8,3.5s0.3,2.4,0.8,3.5c0.5,1.1,1.2,2.1,2.2,3    c1,0.9,2.1,1.5,3.5,2s2.9,0.8,4.6,0.8c0.7,0,1.4-0.1,2.1-0.2c0.7-0.1,1.4-0.3,2.1-0.5s1.3-0.6,1.9-1c0.6-0.4,1.1-0.9,1.7-1.6    L271.9,597.6z"></path><path fill="#231F20" d="M303.7,593c0,0.9-0.1,1.8-0.4,2.8s-0.8,1.9-1.5,2.8c-0.7,0.9-1.7,1.6-3,2.1c-1.3,0.6-2.9,0.8-4.9,0.8    s-3.7-0.3-4.9-0.8c-1.3-0.6-2.3-1.3-3-2.1c-0.7-0.9-1.2-1.8-1.5-2.8s-0.4-2-0.4-2.8v-13.5h2.7v13.3c0,1,0.1,1.9,0.4,2.7    c0.3,0.7,0.6,1.4,1,1.9s0.9,0.9,1.4,1.2c0.5,0.3,1,0.5,1.6,0.7c0.5,0.2,1,0.3,1.5,0.3s0.9,0.1,1.3,0.1c0.3,0,0.7,0,1.2-0.1    c0.5-0.1,1-0.2,1.5-0.3c0.5-0.2,1-0.4,1.6-0.7c0.5-0.3,1-0.7,1.4-1.2s0.8-1.1,1-1.9c0.2-0.7,0.4-1.6,0.4-2.7v-13.3h2.7V593H303.7z    "></path><path fill="#231F20" d="M321.3,601h-2.7v-21.5h8.3c2.7,0,4.9,0.5,6.5,1.4c1.6,1,2.4,2.4,2.4,4.3c0,1.5-0.6,2.8-1.8,3.8    c-1.2,1-2.9,1.6-5.1,1.8l7.8,10.2h-3.3l-7.4-10h-4.6L321.3,601L321.3,601z M321.3,589h4.9c1.2,0,2.3-0.1,3.1-0.3    c0.9-0.2,1.5-0.5,2-0.8s0.9-0.7,1.1-1.2s0.3-0.9,0.3-1.5c0-0.5-0.1-1-0.3-1.4c-0.2-0.5-0.6-0.9-1.1-1.2s-1.2-0.6-2-0.8    c-0.8-0.2-1.9-0.3-3.1-0.3h-4.9V589z"></path><path fill="#231F20" d="M351.8,599h14.4v2H349v-21.5h16.7v2h-14v7.3h13.1v2h-13.1v8.2H351.8z"></path><path fill="#231F20" d="M379.3,579.5h8.9c1.7,0,3.4,0.2,5,0.7c1.7,0.4,3.2,1.1,4.6,2c1.4,0.9,2.5,2,3.3,3.4    c0.8,1.3,1.3,2.9,1.3,4.7c0,1.8-0.4,3.4-1.3,4.7c-0.8,1.3-1.9,2.5-3.3,3.4c-1.4,0.9-2.9,1.6-4.6,2c-1.7,0.4-3.4,0.7-5,0.7h-8.9    V579.5z M382,599h5.3c2.1,0,3.8-0.2,5.3-0.7s2.8-1.2,3.8-2s1.7-1.8,2.2-2.8s0.7-2.1,0.7-3.2c0-1.1-0.2-2.2-0.7-3.2s-1.2-2-2.2-2.8    s-2.3-1.5-3.8-2s-3.3-0.7-5.3-0.7H382V599z"></path><path fill="#231F20" d="M447.1,583c-1.2-1.4-2.9-2.1-5.2-2.1c-0.7,0-1.4,0.1-2.1,0.2c-0.7,0.1-1.3,0.4-1.8,0.7    c-0.5,0.3-1,0.7-1.3,1.2s-0.5,1.1-0.5,1.8c0,1,0.3,1.7,1,2.3c0.7,0.5,1.5,1,2.5,1.3s2.1,0.7,3.3,0.9c1.2,0.3,2.3,0.6,3.3,1.1    s1.9,1.1,2.6,1.8s1,1.8,1,3.1c0,1-0.3,1.9-0.8,2.6c-0.5,0.8-1.2,1.4-2.1,2c-0.8,0.5-1.8,0.9-2.9,1.2c-1.1,0.3-2.1,0.4-3.2,0.4    c-1.6,0-3.2-0.2-4.7-0.7s-2.7-1.3-3.8-2.4l2.5-1.4c0.6,0.8,1.4,1.4,2.4,1.9s2.3,0.7,3.7,0.7c0.7,0,1.4-0.1,2.1-0.3    c0.7-0.2,1.3-0.4,1.8-0.8c0.5-0.3,1-0.7,1.4-1.2s0.5-1,0.5-1.7s-0.2-1.4-0.6-1.9s-0.9-0.9-1.6-1.2c-0.6-0.3-1.4-0.6-2.2-0.8    c-0.8-0.2-1.7-0.4-2.5-0.7c-0.9-0.2-1.7-0.5-2.6-0.8c-0.8-0.3-1.6-0.6-2.2-1.1c-0.6-0.4-1.2-1-1.6-1.6c-0.4-0.7-0.6-1.5-0.6-2.5    s0.2-1.9,0.7-2.7c0.5-0.8,1.2-1.4,2-1.9s1.8-0.9,2.8-1.1s2.1-0.4,3.2-0.4c1.5,0,2.9,0.2,4.1,0.6c1.2,0.4,2.4,1.1,3.5,2L447.1,583z    "></path><path fill="#231F20" d="M466.3,599h14.4v2h-17.2v-21.5h16.7v2h-14v7.3h13.1v2h-13.1v8.2H466.3z"></path><path fill="#231F20" d="M496.8,601h-2.7v-21.5h8.3c2.7,0,4.9,0.5,6.5,1.4c1.6,1,2.4,2.4,2.4,4.3c0,1.5-0.6,2.8-1.8,3.8    c-1.2,1-2.9,1.6-5.1,1.8l7.8,10.2h-3.3l-7.4-10h-4.6L496.8,601L496.8,601z M496.8,589h4.9c1.2,0,2.3-0.1,3.1-0.3    c0.9-0.2,1.5-0.5,2-0.8s0.9-0.7,1.1-1.2s0.3-0.9,0.3-1.5c0-0.5-0.1-1-0.3-1.4c-0.2-0.5-0.6-0.9-1.1-1.2s-1.2-0.6-2-0.8    c-0.8-0.2-1.9-0.3-3.1-0.3h-4.9V589z"></path><path fill="#231F20" d="M532.7,597.7L532.7,597.7l8.9-18.3h3L534.1,601h-2.7l-10.3-21.5h3L532.7,597.7z"></path><path fill="#231F20" d="M558.9,599h14.4v2h-17.2v-21.5h16.7v2h-14v7.3h13.1v2h-13.1L558.9,599L558.9,599z"></path><path fill="#231F20" d="M589.4,601h-2.7v-21.5h8.3c2.7,0,4.9,0.5,6.5,1.4c1.6,1,2.4,2.4,2.4,4.3c0,1.5-0.6,2.8-1.8,3.8    s-2.9,1.6-5.1,1.8l7.8,10.2h-3.3l-7.4-10h-4.6v10H589.4z M589.4,589h4.9c1.2,0,2.3-0.1,3.1-0.3c0.9-0.2,1.5-0.5,2-0.8    s0.9-0.7,1.1-1.2c0.2-0.5,0.3-0.9,0.3-1.5c0-0.5-0.1-1-0.3-1.4c-0.2-0.5-0.6-0.9-1.1-1.2s-1.2-0.6-2-0.8c-0.8-0.2-1.9-0.3-3.1-0.3    h-4.9V589z"></path><path fill="#231F20" d="M630,583c-1.2-1.4-2.9-2.1-5.2-2.1c-0.7,0-1.4,0.1-2.1,0.2c-0.7,0.1-1.3,0.4-1.8,0.7    c-0.5,0.3-1,0.7-1.3,1.2s-0.5,1.1-0.5,1.8c0,1,0.3,1.7,1,2.3c0.7,0.5,1.5,1,2.5,1.3s2.1,0.7,3.3,0.9c1.2,0.3,2.3,0.6,3.3,1.1    s1.9,1.1,2.6,1.8c0.7,0.7,1,1.8,1,3.1c0,1-0.3,1.9-0.8,2.6c-0.5,0.8-1.2,1.4-2.1,2c-0.8,0.5-1.8,0.9-2.9,1.2    c-1.1,0.3-2.1,0.4-3.2,0.4c-1.6,0-3.2-0.2-4.7-0.7s-2.7-1.3-3.8-2.4l2.5-1.4c0.6,0.8,1.4,1.4,2.4,1.9s2.3,0.7,3.7,0.7    c0.7,0,1.4-0.1,2.1-0.3c0.7-0.2,1.3-0.4,1.8-0.8c0.5-0.3,1-0.7,1.4-1.2s0.5-1,0.5-1.7s-0.2-1.4-0.6-1.9c-0.4-0.5-0.9-0.9-1.6-1.2    c-0.6-0.3-1.4-0.6-2.2-0.8s-1.7-0.4-2.5-0.7c-0.9-0.2-1.7-0.5-2.6-0.8c-0.8-0.3-1.6-0.6-2.2-1.1c-0.6-0.4-1.2-1-1.6-1.6    c-0.4-0.7-0.6-1.5-0.6-2.5s0.2-1.9,0.7-2.7c0.5-0.8,1.2-1.4,2-1.9s1.8-0.9,2.8-1.1s2.1-0.4,3.2-0.4c1.5,0,2.9,0.2,4.1,0.6    c1.2,0.4,2.4,1.1,3.5,2L630,583z"></path></g></g><g id="Layer_2"><path fill="#006CA8" d="M126.1,506c-0.3,0-0.6,0-1,0c-7.7,0-15.2,0.9-22.4,2.6c-0.5-1.1-1.2-2.1-2-3c3.8-3.8,7.9-7.2,12.3-10.3   C117.9,498.1,122.3,501.7,126.1,506 M69,573.2c-2.2,0.3-4.1,1.2-5.7,2.6c-4.6-4.6-8.7-9.7-12.2-15.2c3-2.1,4.9-5.6,4.9-9.5   c0-3.4-1.5-6.4-3.8-8.5c8.4-9.7,18.7-17.6,30.2-23.3c0.4,0.7,0.9,1.4,1.5,2C74.4,536.7,69.1,554.6,69,573.2 M83.8,487   c9.4,0,18.2,2.3,26,6.3c-4.2,3.1-8.1,6.4-11.7,10.1c-1.7-1-3.7-1.6-5.8-1.6c-6.4,0-11.6,5.2-11.6,11.6c0,1,0.2,1.9,0.4,2.8   c-12.1,5.9-22.9,14.3-31.7,24.5c-1.5-0.7-3.2-1.2-5-1.2c-1.1,0-2.1,0.2-3.2,0.5c-2.9-8.6-4.5-17.8-5-27.4   C46.5,497.2,64,487,83.8,487 M33.2,517.8c0.7,8.2,2.4,16.1,4.9,23.5c-3.2,2.1-5.4,5.7-5.4,9.7c0,3.4,1.5,6.4,3.8,8.5   c-1.5,2.9-2.8,5.9-4,9c-3.6-7.5-5.7-15.8-5.7-24.7C26.8,534.5,29.2,525.7,33.2,517.8 M34.6,572.5c1.4-3.8,3-7.5,4.8-11   c1.5,0.7,3.2,1.2,5,1.2c1.3,0,2.5-0.3,3.6-0.6c3.7,5.9,8.1,11.3,13,16.2c-1.2,1.8-1.9,4-1.9,6.4c0,6.4,5.2,11.6,11.6,11.6   c0.3,0,0.6-0.1,0.9-0.1c0.3,1.2,0.6,2.4,0.9,3.6C56.3,596.5,42.7,586.3,34.6,572.5 M76.1,600.3c-0.5-1.6-0.9-3.2-1.3-4.8   c1.7-0.6,3.2-1.7,4.4-3c4.7,2.8,9.7,5.3,15,7.4c-3.3,0.6-6.8,1-10.3,1C81.2,600.9,78.6,600.6,76.1,600.3 M100.1,598.5   c-6.8-2.3-13.2-5.2-19.1-8.8c0.7-1.5,1.2-3.2,1.2-5.1c0-5.8-4.3-10.6-9.9-11.4c0.1-17.9,5.1-35.1,14.2-49.9c1.7,1,3.6,1.6,5.7,1.6   c6.4,0,11.6-5.2,11.6-11.6c0-0.6-0.1-1.1-0.2-1.7c6.9-1.6,14.1-2.4,21.5-2.4c1.3,0,2.6,0.1,3.8,0.1c7.3,9.6,11.8,21.5,11.8,34.5   C140.8,569.7,123.6,591.4,100.1,598.5"></path><path fill="#C52127" d="M139.6,518.3c3.6,7.8,5.6,16.5,5.6,25.7c0,33.8-27.5,61.4-61.4,61.4c-33.8,0-61.4-27.5-61.4-61.4   s27.5-61.4,61.4-61.4c1.8,0,3.6,0.1,5.4,0.3c-2.7-0.3-5.4-0.5-8.2-0.5c-36.2,0-65.6,29.5-65.6,65.7c0,36.3,29.4,65.7,65.6,65.7   s65.6-29.5,65.6-65.7C146.7,537.3,144.1,527.2,139.6,518.3z"></path><path fill="#C52127" d="M199.8,528.7h-11c-4.9,0-8.7,1.5-10.9,4.2v-3.6h-7v63.4h7.4V563c1.8,2.1,4.7,3,9.5,3h11.1   c12.8,0,17.7-4.4,17.7-15.8v-6.1C216.6,533.8,211.1,528.7,199.8,528.7z M188.1,535.1h11.6c8,0,9.6,3.2,9.6,9.1v6.8   c0,7.3-3.4,8.7-10,8.7h-10.4c-6.3,0-10.5-1.5-10.5-8.8v-6.6C178.3,538.1,181.5,535.1,188.1,535.1z"></path><g><path fill="#C52127" d="M251.7,529h-8.3c-6.1,0-10.6,0.8-13.3,4.4V515h-7.4v50.7h7.4v-20.5c0-7.3,2.4-9.9,15.9-9.9h1.5    c11.1,0,11.9,3.1,11.9,7.6v22.8h7.4v-24.2C266.9,536.8,264.9,529,251.7,529z"></path><path fill="#C52127" d="M303.3,529H295c-9.3,0-19.9,1.7-19.9,14.8v7.6c0,13.1,10.6,14.8,19.9,14.8h8.3c9.3,0,19.9-1.7,19.9-14.8    v-7.6C323.2,530.6,312.6,529,303.3,529z M282.5,544.1c0-7.3,4.1-8.8,10.7-8.8h11.9c6.6,0,10.7,1.5,10.7,8.8v6.9    c0,7.3-4.1,8.8-10.7,8.8h-11.9c-6.6,0-10.7-1.5-10.7-8.8V544.1z"></path><path fill="#C52127" d="M357,529h-9.4c-8.8,0-17.8,1.8-17.8,14.8v7.5c0,13.3,9.1,15,17.1,15h10.6c8.5,0,18.2-1.3,18.2-11.1v-1.5    h-7.4l0,0.8c-0.3,4.4-2.2,5.5-9.8,5.5h-8c-10.2,0-13.2-2-13.2-9.1v-1.4h38.4v-4.7C375.8,530.8,366.3,529,357,529z M368.3,541.6    v1.5h-30.9c0.6-6.6,2.5-7.7,11.1-7.7h8.5C364.4,535.3,368.3,537.5,368.3,541.6z"></path><path fill="#C52127" d="M412.4,529h-8.7c-6.1,0-10.6,0.8-13.3,4.4v-3.9h-7v36.2h7.4v-20.5c0-7.3,2.4-9.9,15.9-9.9h1.5    c11.1,0,11.9,3.1,11.9,7.6v22.8h7.4v-24.2C427.5,536.8,425.6,529,412.4,529z"></path><rect x="437.7" y="515" fill="#C52127" width="7.4" height="8"></rect><rect x="437.7" y="529.5" fill="#C52127" width="7.4" height="36.2"></rect><polygon fill="#C52127" points="479.3,546.4 496.5,529.5 486.2,529.5 474,541.8 461.8,529.5 451.5,529.5 468.8,546.4 449,565.7     459.7,565.7 474,551 488.4,565.7 499.1,565.7   "></polygon></g><g><polygon fill="#006CA7" points="562.1,557 518.3,515 507.2,515 507.2,565.7 515.5,565.7 515.5,523.7 559.3,565.7 570.3,565.7     570.3,515 562.1,515   "></polygon><path fill="#006CA7" d="M614.5,515h-9.2l-30.1,50.7h9.4l6.1-10.4h38.4l6.1,10.4h9.4l-29.9-50.3L614.5,515z M625,548.3h-30.1    l15.1-25.5L625,548.3z"></path><path fill="#006CA7" d="M691.1,515h-41.2v50.7h8.3v-19.3h31.7c15.3,0,16.1-6.5,16.1-17.2C705.9,517.3,700.5,515,691.1,515z     M658.2,522h31.4c6.1,0,8.1,1.6,8.1,6.4v4.7c0,4.3-2.3,6.2-7.6,6.2h-31.9V522z"></path></g><g><path fill="#231F20" d="M710.1,522.8c0-0.7,0.1-1.4,0.4-2c0.3-0.6,0.6-1.1,1.1-1.6c0.4-0.4,1-0.8,1.6-1c0.6-0.3,1.2-0.4,1.9-0.4    c0.7,0,1.3,0.1,1.9,0.4c0.6,0.3,1.1,0.6,1.6,1c0.4,0.4,0.8,1,1.1,1.5c0.3,0.6,0.4,1.2,0.4,1.9c0,0.7-0.1,1.4-0.4,2    c-0.3,0.6-0.6,1.1-1.1,1.6c-0.4,0.4-1,0.8-1.6,1c-0.6,0.3-1.2,0.4-1.9,0.4c-0.7,0-1.3-0.1-1.9-0.4c-0.6-0.3-1.1-0.6-1.6-1    c-0.4-0.4-0.8-1-1.1-1.5C710.2,524.2,710.1,523.5,710.1,522.8z M710.9,522.8c0,0.6,0.1,1.1,0.3,1.6c0.2,0.5,0.5,0.9,0.9,1.3    c0.4,0.4,0.8,0.7,1.3,0.9c0.5,0.2,1,0.3,1.6,0.3c0.6,0,1.1-0.1,1.6-0.3c0.5-0.2,0.9-0.5,1.3-0.9c0.4-0.4,0.7-0.8,0.9-1.3    c0.2-0.5,0.3-1.1,0.3-1.7c0-0.6-0.1-1.1-0.3-1.7c-0.2-0.5-0.5-1-0.9-1.3c-0.4-0.4-0.8-0.7-1.3-0.9c-0.5-0.2-1-0.3-1.6-0.3    c-0.6,0-1.1,0.1-1.6,0.3c-0.5,0.2-0.9,0.5-1.3,0.9c-0.4,0.4-0.7,0.8-0.9,1.3C711,521.7,710.9,522.2,710.9,522.8z M713.2,520h2.1    c0.7,0,1.2,0.1,1.5,0.4c0.3,0.3,0.5,0.7,0.5,1.2c0,0.5-0.1,0.9-0.4,1.1c-0.3,0.2-0.6,0.4-1.1,0.4l1.6,2.5h-0.9l-1.6-2.4h-1v2.4    h-0.8V520z M714,522.5h1c0.2,0,0.4,0,0.6,0c0.2,0,0.4-0.1,0.5-0.1c0.1-0.1,0.3-0.2,0.3-0.3c0.1-0.1,0.1-0.3,0.1-0.5    c0-0.2,0-0.4-0.1-0.5c-0.1-0.1-0.2-0.2-0.3-0.3c-0.1-0.1-0.3-0.1-0.4-0.1c-0.2,0-0.3,0-0.5,0H714V522.5z"></path></g></g><g id="Layer_3"><g><path fill="#231F20" d="M210.5,583.6c-0.9-0.7-1.9-1.3-3.1-1.7c-1.2-0.4-2.6-0.6-4.2-0.6c-1.6,0-3.1,0.2-4.4,0.7    c-1.3,0.5-2.4,1.1-3.3,1.9c-0.9,0.8-1.6,1.8-2.1,2.8c-0.5,1.1-0.7,2.2-0.7,3.4s0.2,2.3,0.7,3.4c0.5,1.1,1.2,2,2.1,2.8    c0.9,0.8,2,1.5,3.3,1.9c1.3,0.5,2.8,0.7,4.4,0.7c1.3,0,2.6-0.1,3.8-0.4c1.2-0.3,2.3-0.6,3.3-1.1v-6.9h-6.1v-1.9h8.7v10.1    c-1.5,0.7-3,1.2-4.8,1.6c-1.7,0.4-3.4,0.5-5,0.5c-1.9,0-3.7-0.3-5.3-0.8c-1.6-0.5-3-1.3-4.2-2.2c-1.2-1-2.1-2.1-2.8-3.4    c-0.7-1.3-1-2.8-1-4.3s0.3-3,1-4.3c0.7-1.3,1.6-2.5,2.8-3.4c1.2-1,2.6-1.7,4.2-2.3c1.6-0.5,3.4-0.8,5.3-0.8c2.1,0,3.8,0.2,5.3,0.7    c1.5,0.5,2.8,1.1,4,2.1L210.5,583.6z"></path><path fill="#231F20" d="M230,598.4h12v1.9h-14.6v-20.6h2.6V598.4z"></path><path fill="#231F20" d="M278.3,590.1c0,1.6-0.3,3-1,4.3c-0.7,1.3-1.6,2.5-2.8,3.4c-1.2,1-2.6,1.7-4.2,2.2    c-1.6,0.5-3.4,0.8-5.3,0.8c-1.9,0-3.7-0.3-5.3-0.8c-1.6-0.5-3-1.3-4.2-2.2c-1.2-1-2.1-2.1-2.8-3.4c-0.7-1.3-1-2.8-1-4.3    s0.3-3,1-4.3c0.7-1.3,1.6-2.5,2.8-3.4c1.2-1,2.6-1.7,4.2-2.3c1.6-0.5,3.4-0.8,5.3-0.8c1.9,0,3.7,0.3,5.3,0.8    c1.6,0.5,3,1.3,4.2,2.3c1.2,1,2.1,2.1,2.8,3.4C277.9,587.1,278.3,588.5,278.3,590.1z M275.4,590.1c0-1.2-0.2-2.3-0.7-3.4    c-0.5-1.1-1.2-2-2.1-2.8c-0.9-0.8-2-1.5-3.3-1.9c-1.3-0.5-2.8-0.7-4.4-0.7s-3.1,0.2-4.4,0.7c-1.3,0.5-2.4,1.1-3.3,1.9    c-0.9,0.8-1.6,1.8-2.1,2.8c-0.5,1.1-0.7,2.2-0.7,3.4s0.2,2.3,0.7,3.4c0.5,1.1,1.2,2,2.1,2.8c0.9,0.8,2,1.5,3.3,1.9    c1.3,0.5,2.8,0.7,4.4,0.7s3.1-0.2,4.4-0.7c1.3-0.5,2.4-1.1,3.3-1.9c0.9-0.8,1.6-1.8,2.1-2.8C275.2,592.4,275.4,591.3,275.4,590.1z    "></path><path fill="#231F20" d="M291.1,579.8h7.7c1.1,0,2.1,0.1,3.1,0.3c1,0.2,1.9,0.5,2.6,0.9c0.8,0.4,1.4,0.9,1.9,1.6    c0.5,0.7,0.7,1.5,0.7,2.4c0,1.1-0.4,2.1-1.2,2.9c-0.8,0.8-1.9,1.3-3.4,1.6v0.1c1.8,0.1,3.2,0.6,4.3,1.5c1,0.9,1.5,2.1,1.5,3.6    c0,0.3-0.1,0.8-0.3,1.5c-0.2,0.6-0.6,1.3-1.3,1.9c-0.7,0.6-1.6,1.2-2.8,1.6c-1.2,0.5-2.9,0.7-4.9,0.7h-7.8V579.8z M293.7,588.8    h5.3c0.6,0,1.3-0.1,1.9-0.2c0.6-0.1,1.2-0.3,1.7-0.6c0.5-0.3,0.9-0.7,1.2-1.1c0.3-0.5,0.5-1,0.5-1.7c0-0.2-0.1-0.5-0.2-0.9    c-0.1-0.4-0.4-0.8-0.7-1.2c-0.4-0.4-0.9-0.7-1.7-1c-0.7-0.3-1.7-0.4-2.9-0.4h-5V588.8z M293.7,598.4h5c0.9,0,1.8-0.1,2.6-0.2    c0.8-0.2,1.5-0.4,2.1-0.7c0.6-0.3,1.1-0.7,1.4-1.2c0.4-0.5,0.5-1.1,0.5-1.7c0-1.4-0.5-2.4-1.6-3c-1.1-0.7-2.7-1-4.8-1h-5.3V598.4z    "></path><path fill="#231F20" d="M321.2,600.4h-3l11.2-20.6h2.5l11.2,20.6h-3l-2.8-5.4H324L321.2,600.4z M325,593h11.1l-5.6-10.8L325,593z"></path><path fill="#231F20" d="M356.7,598.4h12v1.9h-14.6v-20.6h2.6V598.4z"></path><path fill="#231F20" d="M400.2,600.4h-2.6v-20.6h2.6V600.4z"></path><path fill="#231F20" d="M423.1,600.4h-2.6v-18.6h-8.6v-1.9h19.8v1.9h-8.6V600.4z"></path><path fill="#231F20" d="M473.2,583.2c-1.1-1.3-2.8-2-5-2c-0.7,0-1.3,0.1-2,0.2c-0.7,0.1-1.2,0.4-1.8,0.7c-0.5,0.3-0.9,0.7-1.3,1.2    c-0.3,0.5-0.5,1-0.5,1.7c0,0.9,0.3,1.7,1,2.2c0.7,0.5,1.5,0.9,2.4,1.3c1,0.3,2,0.6,3.2,0.9c1.1,0.3,2.2,0.6,3.2,1    c1,0.4,1.8,1,2.4,1.7c0.7,0.7,1,1.7,1,2.9c0,0.9-0.2,1.8-0.7,2.5c-0.5,0.7-1.1,1.4-2,1.9c-0.8,0.5-1.7,0.9-2.7,1.2    c-1,0.3-2,0.4-3,0.4c-1.6,0-3.1-0.2-4.5-0.7c-1.4-0.5-2.6-1.3-3.6-2.3l2.4-1.4c0.6,0.8,1.3,1.4,2.3,1.8c1,0.5,2.2,0.7,3.5,0.7    c0.7,0,1.3-0.1,2-0.2c0.7-0.2,1.2-0.4,1.8-0.7c0.5-0.3,1-0.7,1.3-1.2c0.3-0.5,0.5-1,0.5-1.6c0-0.7-0.2-1.3-0.6-1.8    c-0.4-0.5-0.9-0.9-1.5-1.2c-0.6-0.3-1.3-0.6-2.1-0.8c-0.8-0.2-1.6-0.4-2.4-0.6c-0.8-0.2-1.6-0.5-2.4-0.7c-0.8-0.3-1.5-0.6-2.1-1    c-0.6-0.4-1.1-0.9-1.5-1.6c-0.4-0.6-0.6-1.4-0.6-2.4c0-1,0.2-1.8,0.7-2.6c0.5-0.7,1.1-1.3,1.9-1.8c0.8-0.5,1.7-0.8,2.7-1.1    c1-0.2,2-0.3,3-0.3c1.5,0,2.8,0.2,4,0.6c1.2,0.4,2.3,1,3.3,1.9L473.2,583.2z"></path><path fill="#231F20" d="M491.4,598.4h13.8v1.9h-16.4v-20.6h15.9v1.9h-13.3v7h12.5v1.9h-12.5V598.4z"></path><path fill="#231F20" d="M520.6,600.4H518v-20.6h7.9c2.6,0,4.7,0.5,6.2,1.4c1.5,0.9,2.3,2.3,2.3,4.1c0,1.4-0.6,2.6-1.7,3.6    c-1.1,1-2.8,1.5-4.9,1.7l7.4,9.8H532l-7-9.6h-4.4V600.4z M520.6,588.9h4.6c1.2,0,2.1-0.1,3-0.3c0.8-0.2,1.5-0.5,1.9-0.8    c0.5-0.3,0.8-0.7,1.1-1.1s0.3-0.9,0.3-1.4c0-0.5-0.1-0.9-0.3-1.4c-0.2-0.4-0.6-0.8-1.1-1.1c-0.5-0.3-1.1-0.6-1.9-0.8    c-0.8-0.2-1.8-0.3-3-0.3h-4.6V588.9z"></path><path fill="#231F20" d="M554.8,597.2L554.8,597.2l8.5-17.4h2.8l-10,20.6h-2.6l-9.8-20.6h2.9L554.8,597.2z"></path><path fill="#231F20" d="M579.8,600.4h-2.6v-20.6h2.6V600.4z"></path><path fill="#231F20" d="M615.5,597.1c-0.4,0.5-1,1-1.6,1.5c-0.6,0.5-1.4,0.9-2.2,1.2c-0.8,0.3-1.7,0.6-2.7,0.8c-1,0.2-2,0.3-3,0.3    c-1.9,0-3.7-0.3-5.3-0.8c-1.6-0.5-3-1.3-4.2-2.2c-1.2-1-2.1-2.1-2.8-3.4c-0.7-1.3-1-2.8-1-4.3s0.3-3,1-4.3    c0.7-1.3,1.6-2.5,2.8-3.4s2.6-1.7,4.2-2.3c1.6-0.5,3.4-0.8,5.3-0.8c1.6,0,3.2,0.3,4.8,0.8c1.6,0.5,3,1.3,4.1,2.5l-2.3,1.4    c-0.3-0.3-0.6-0.7-1.1-1c-0.5-0.3-1-0.6-1.6-0.9c-0.6-0.3-1.2-0.5-1.9-0.6c-0.7-0.2-1.4-0.2-2-0.2c-1.6,0-3.1,0.2-4.4,0.7    c-1.3,0.5-2.4,1.1-3.3,1.9c-0.9,0.8-1.6,1.8-2.1,2.8c-0.5,1.1-0.7,2.2-0.7,3.4s0.2,2.3,0.7,3.4c0.5,1.1,1.2,2,2.1,2.8    c0.9,0.8,2,1.5,3.3,1.9c1.3,0.5,2.8,0.7,4.4,0.7c0.7,0,1.3,0,2-0.1c0.7-0.1,1.3-0.3,2-0.5c0.6-0.2,1.2-0.5,1.8-0.9    c0.6-0.4,1.1-0.9,1.6-1.5L615.5,597.1z"></path><path fill="#231F20" d="M630.2,598.4h13.8v1.9h-16.4v-20.6h15.9v1.9h-13.3v7h12.5v1.9h-12.5V598.4z"></path><path fill="#231F20" d="M668.9,583.2c-1.1-1.3-2.8-2-5-2c-0.7,0-1.3,0.1-2,0.2c-0.7,0.1-1.2,0.4-1.8,0.7c-0.5,0.3-0.9,0.7-1.3,1.2    c-0.3,0.5-0.5,1-0.5,1.7c0,0.9,0.3,1.7,1,2.2c0.7,0.5,1.5,0.9,2.4,1.3c1,0.3,2,0.6,3.2,0.9c1.1,0.3,2.2,0.6,3.2,1    c1,0.4,1.8,1,2.4,1.7c0.7,0.7,1,1.7,1,2.9c0,0.9-0.2,1.8-0.7,2.5c-0.5,0.7-1.1,1.4-2,1.9c-0.8,0.5-1.7,0.9-2.7,1.2    c-1,0.3-2,0.4-3,0.4c-1.6,0-3.1-0.2-4.5-0.7c-1.4-0.5-2.6-1.3-3.6-2.3l2.4-1.4c0.6,0.8,1.3,1.4,2.3,1.8c1,0.5,2.2,0.7,3.5,0.7    c0.7,0,1.3-0.1,2-0.2c0.7-0.2,1.2-0.4,1.8-0.7c0.5-0.3,1-0.7,1.3-1.2c0.3-0.5,0.5-1,0.5-1.6c0-0.7-0.2-1.3-0.6-1.8    c-0.4-0.5-0.9-0.9-1.5-1.2c-0.6-0.3-1.3-0.6-2.1-0.8c-0.8-0.2-1.6-0.4-2.4-0.6c-0.8-0.2-1.6-0.5-2.4-0.7c-0.8-0.3-1.5-0.6-2.1-1    c-0.6-0.4-1.1-0.9-1.5-1.6c-0.4-0.6-0.6-1.4-0.6-2.4c0-1,0.2-1.8,0.7-2.6c0.5-0.7,1.1-1.3,1.9-1.8c0.8-0.5,1.7-0.8,2.7-1.1    c1-0.2,2-0.3,3-0.3c1.5,0,2.8,0.2,4,0.6c1.2,0.4,2.3,1,3.3,1.9L668.9,583.2z"></path></g></g></svg>