<?xml version="1.0" encoding="UTF-8"?>
<svg xmlns="http://www.w3.org/2000/svg" xmlns:xlink="http://www.w3.org/1999/xlink" width="660.76pt" height="188.94pt" viewBox="0 0 660.76 188.94" version="1.1">
<defs>
<clipPath id="clip1">
  <path d="M 0 31 L 102 31 L 102 188.941406 L 0 188.941406 Z M 0 31 "/>
</clipPath>
<clipPath id="clip2">
  <path d="M 476 0 L 660.761719 0 L 660.761719 104 L 476 104 Z M 476 0 "/>
</clipPath>
</defs>
<g id="surface1">
<path style=" stroke:none;fill-rule:nonzero;fill:rgb(11.399841%,18.399048%,32.499695%);fill-opacity:1;" d="M 341.316406 90.070313 C 341.316406 110.136719 334.515625 119.082031 319.257813 119.082031 C 303.996094 119.082031 297.191406 110.136719 297.191406 90.070313 L 297.191406 34.832031 L 276.867188 34.832031 L 276.867188 92.175781 C 276.867188 121.820313 291.921875 138.144531 319.257813 138.144531 C 346.589844 138.144531 361.644531 121.820313 361.644531 92.175781 L 361.644531 34.832031 L 341.316406 34.832031 "/>
<path style=" stroke:none;fill-rule:nonzero;fill:rgb(11.399841%,18.399048%,32.499695%);fill-opacity:1;" d="M 426.863281 31.882813 C 413.203125 31.882813 401.160156 38.425781 392.796875 50.34375 L 392.796875 34.832031 L 372.46875 34.832031 L 372.46875 179.171875 L 392.796875 179.171875 L 392.796875 120.285156 C 401.011719 131.660156 413.046875 138.144531 426.023438 138.144531 C 440.519531 138.144531 452.796875 132.507813 461.515625 121.835938 C 469.492188 112.074219 473.886719 98.699219 473.886719 84.171875 C 473.886719 70.425781 469.386719 57.515625 461.222656 47.816406 C 452.5625 37.546875 440.359375 31.882813 426.863281 31.882813 M 454.613281 84.804688 C 454.613281 109.066406 438.878906 119.925781 423.28125 119.925781 C 403.265625 119.925781 392.796875 102.257813 392.796875 84.804688 C 392.796875 62.023438 408.132813 50.101563 423.28125 50.101563 C 441.730469 50.101563 454.613281 64.371094 454.613281 84.804688 "/>
<path style=" stroke:none;fill-rule:nonzero;fill:rgb(11.399841%,18.399048%,32.499695%);fill-opacity:1;" d="M 175.679688 37.125 C 175.492188 36.984375 175.351563 36.882813 175.277344 36.835938 C 170.257813 33.640625 164.589844 31.882813 159.320313 31.882813 C 147.269531 31.882813 137.554688 38.332031 132.414063 49.652344 L 132.414063 34.832031 L 112.089844 34.832031 L 112.089844 134.777344 L 132.414063 134.777344 L 132.414063 85.644531 C 132.414063 69.6875 134.945313 51.367188 154.6875 51.367188 C 157.792969 51.367188 160.410156 51.929688 162.699219 53.09375 "/>
<g clip-path="url(#clip1)" clip-rule="nonzero">
<path style=" stroke:none;fill-rule:nonzero;fill:rgb(11.399841%,18.399048%,32.499695%);fill-opacity:1;" d="M 49.671875 119.925781 C 29.652344 119.925781 19.183594 102.257813 19.183594 84.804688 C 19.183594 62.019531 34.519531 50.101563 49.671875 50.101563 C 68.117188 50.101563 81.003906 64.371094 81.003906 84.804688 C 81.003906 109.066406 65.265625 119.925781 49.671875 119.925781 M 81.09375 34.832031 L 81.09375 50.722656 C 72.828125 38.558594 60.785156 31.882813 47.023438 31.882813 C 33.527344 31.882813 21.324219 37.542969 12.664063 47.816406 C 4.5 57.515625 0 70.425781 0 84.171875 C 0 98.699219 4.390625 112.074219 12.371094 121.835938 C 21.09375 132.503906 33.363281 138.144531 47.863281 138.144531 C 60.84375 138.144531 72.878906 131.65625 81.09375 120.28125 L 81.09375 135.175781 C 81.09375 152.753906 77.816406 170.722656 53.550781 170.722656 C 35.785156 170.722656 24.746094 160.332031 24.746094 143.601563 L 24.746094 142.917969 L 4.414063 142.917969 L 4.425781 143.613281 C 4.832031 170.722656 24.238281 188.941406 52.710938 188.941406 C 95.878906 188.941406 101.417969 157.394531 101.417969 129.914063 L 101.417969 34.832031 "/>
</g>
<g clip-path="url(#clip2)" clip-rule="nonzero">
<path style=" stroke:none;fill-rule:nonzero;fill:rgb(0%,50.19989%,78.399658%);fill-opacity:1;" d="M 656.019531 75.800781 C 646.347656 79.859375 637.117188 82.09375 630.03125 82.09375 C 624.3125 82.09375 620.320313 80.679688 618.152344 77.890625 C 615.785156 74.839844 615.445313 69.925781 617.171875 63.199219 L 622.78125 37.734375 C 625.640625 25.398438 624.480469 15.867188 619.335938 9.394531 C 614.820313 3.710938 607.566406 0.828125 597.761719 0.828125 C 587.386719 0.828125 577.714844 4.527344 568.296875 12.113281 C 564.429688 4.621094 556.972656 0.828125 546.085938 0.828125 C 537.09375 0.828125 528.304688 4.019531 519.9375 10.320313 C 516.53125 4.214844 507.648438 -0.00390625 497.15625 -0.00390625 C 492.078125 -0.00390625 486.902344 0.9375 481.78125 2.804688 L 480.355469 3.324219 L 476.363281 22.449219 L 481.15625 20.453125 C 488.042969 17.589844 493.535156 17.765625 496.070313 20.957031 C 497.886719 23.234375 498.308594 27.011719 497.269531 31.554688 L 483.964844 86.484375 L 506.328125 86.484375 L 515.191406 48.21875 C 520.214844 29.289063 528.148438 20.46875 540.152344 20.46875 C 543.324219 20.46875 545.917969 21.542969 547.464844 23.492188 C 549.386719 25.90625 549.597656 30.65625 548.078125 37.234375 L 536.660156 86.484375 L 558.988281 86.484375 L 569.480469 41.207031 C 572.375 29 581.835938 20.46875 592.484375 20.46875 C 595.789063 20.46875 598.371094 21.527344 599.964844 23.527344 C 601.878906 25.941406 602.085938 30.675781 600.566406 37.238281 L 594.144531 65.21875 C 591.695313 76.558594 593.222656 85.734375 598.675781 92.492188 C 604.21875 99.363281 613.707031 103.144531 625.386719 103.144531 C 635.070313 103.144531 645.699219 100.546875 655.308594 95.832031 L 656.527344 95.234375 L 660.757813 73.808594 "/>
</g>
<path style=" stroke:none;fill-rule:nonzero;fill:rgb(11.399841%,18.399048%,32.499695%);fill-opacity:1;" d="M 231.308594 118.90625 C 227.453125 121.113281 222.855469 122.230469 217.644531 122.230469 C 212.429688 122.230469 207.835938 121.113281 203.980469 118.90625 C 200.144531 116.71875 196.949219 113.796875 194.476563 110.230469 C 192.023438 106.6875 190.195313 102.652344 189.046875 98.238281 C 187.898438 93.863281 187.316406 89.3125 187.316406 84.710938 C 187.316406 80.242188 187.898438 75.726563 189.042969 71.28125 C 190.195313 66.800781 192.027344 62.761719 194.484375 59.28125 C 196.949219 55.785156 200.144531 52.902344 203.980469 50.710938 C 207.84375 48.507813 212.4375 47.386719 217.644531 47.386719 C 222.847656 47.386719 227.445313 48.503906 231.308594 50.710938 C 235.148438 52.90625 238.34375 55.789063 240.808594 59.28125 C 243.257813 62.753906 245.089844 66.792969 246.246094 71.28125 C 247.394531 75.753906 247.976563 80.269531 247.976563 84.710938 C 247.976563 89.285156 247.394531 93.835938 246.246094 98.238281 C 245.089844 102.65625 243.261719 106.691406 240.8125 110.230469 C 238.347656 113.792969 235.148438 116.714844 231.308594 118.90625 M 265.378906 63.253906 C 263.101563 56.746094 259.742188 51.082031 255.394531 46.410156 C 251.046875 41.738281 245.644531 38.019531 239.34375 35.355469 C 233.027344 32.6875 225.726563 31.335938 217.644531 31.335938 C 209.5625 31.335938 202.261719 32.6875 195.945313 35.355469 C 189.640625 38.019531 184.238281 41.738281 179.898438 46.410156 C 175.546875 51.078125 172.1875 56.746094 169.914063 63.253906 C 167.628906 69.78125 166.46875 77 166.46875 84.710938 C 166.46875 92.554688 167.628906 99.84375 169.910156 106.367188 C 172.1875 112.871094 175.546875 118.535156 179.894531 123.207031 C 184.238281 127.878906 189.640625 131.601563 195.945313 134.261719 C 202.261719 136.929688 209.5625 138.28125 217.644531 138.28125 C 225.726563 138.28125 233.027344 136.929688 239.347656 134.261719 C 245.644531 131.601563 251.042969 127.886719 255.394531 123.207031 C 259.742188 118.535156 263.101563 112.867188 265.378906 106.367188 C 267.664063 99.832031 268.820313 92.546875 268.820313 84.710938 C 268.820313 77.007813 267.664063 69.789063 265.378906 63.253906 "/>
</g>
</svg>
